<?xml version="1.0" encoding="UTF-8" standalone="no"?>
<!-- Created with Inkscape (http://www.inkscape.org/) -->

<svg
   width="112.94279mm"
   height="139.23405mm"
   viewBox="0 0 112.94279 139.23405"
   version="1.1"
   id="svg1"
   xml:space="preserve"
   inkscape:version="1.4.4 (dcaf3e7, 2026-05-05)"
   sodipodi:docname="portholelogowithname.svg"
   xmlns:inkscape="http://www.inkscape.org/namespaces/inkscape"
   xmlns:sodipodi="http://sodipodi.sourceforge.net/DTD/sodipodi-0.dtd"
   xmlns="http://www.w3.org/2000/svg"
   xmlns:svg="http://www.w3.org/2000/svg"><sodipodi:namedview
     id="namedview1"
     pagecolor="#505050"
     bordercolor="#eeeeee"
     borderopacity="1"
     inkscape:showpageshadow="0"
     inkscape:pageopacity="0"
     inkscape:pagecheckerboard="0"
     inkscape:deskcolor="#505050"
     inkscape:document-units="mm"
     inkscape:zoom="1.0396254"
     inkscape:cx="234.69992"
     inkscape:cy="315.01731"
     inkscape:window-width="2560"
     inkscape:window-height="1369"
     inkscape:window-x="-8"
     inkscape:window-y="305"
     inkscape:window-maximized="1"
     inkscape:current-layer="layer1" /><defs
     id="defs1" /><g
     inkscape:label="Layer 1"
     inkscape:groupmode="layer"
     id="layer1"
     transform="translate(-55.762582,-97.817452)"><path
       id="path1"
       style="fill:#ffffff;fill-opacity:1;stroke:#010937;stroke-width:3;stroke-dasharray:none;stroke-opacity:1"
       d="M 112.23398,99.317452 A 53,53 0 0 0 59.234111,152.31732 53,53 0 0 0 112.23398,205.3177 53,53 0 0 0 165.23384,152.31732 53,53 0 0 0 112.23398,99.317452 Z m 0,17.999938 a 35,35 0 0 1 34.99993,34.99993 35,35 0 0 1 -34.99993,34.99993 35,35 0 0 1 -34.999935,-34.99993 35,35 0 0 1 34.999935,-34.99993 z" /><path
       sodipodi:type="star"
       style="fill:#010937;fill-opacity:1;stroke-width:0.264583"
       id="path6"
       inkscape:flatsided="true"
       sodipodi:sides="6"
       sodipodi:cx="120.25065"
       sodipodi:cy="109.17995"
       sodipodi:r1="4.2127032"
       sodipodi:r2="3.6483083"
       sodipodi:arg1="0.52359878"
       sodipodi:arg2="1.0471976"
       inkscape:rounded="0"
       inkscape:randomized="0"
       d="m 123.89896,111.2863 -3.64831,2.10635 -3.64831,-2.10635 0,-4.2127 3.64831,-2.10636 3.64831,2.10636 z"
       transform="matrix(1.2964716,0,0,1.2964716,-43.667575,-33.53754)"
       inkscape:transform-center-y="-44.23426"
       inkscape:transform-center-x="0.033742082" /><path
       id="circle6"
       style="fill:#00a4ef;fill-opacity:1;stroke:#010937;stroke-width:3;stroke-dasharray:none;stroke-opacity:1"
       d="M 112.23398,152.31732 H 77.234045 a 35,35 0 0 0 34.999935,34.99993 z" /><path
       id="path9"
       style="fill:#ffb900;fill-opacity:1;stroke:#010937;stroke-width:3;stroke-dasharray:none;stroke-opacity:1"
       d="m 112.23398,152.31732 v 34.99993 a 35,35 0 0 0 34.99993,-34.99993 z" /><path
       id="path8"
       style="fill:#f25022;fill-opacity:1;stroke:#010937;stroke-width:3;stroke-dasharray:none;stroke-opacity:1"
       d="M 112.23398,117.31739 A 35,35 0 0 0 77.234045,152.31732 H 112.23398 Z" /><path
       id="path7"
       style="fill:#7fba00;fill-opacity:1;stroke:#010937;stroke-width:3;stroke-dasharray:none;stroke-opacity:1"
       d="m 112.23398,117.31739 v 34.99993 h 34.99993 a 35,35 0 0 0 -34.99993,-34.99993 z" /><path
       sodipodi:type="star"
       style="fill:#010937;fill-opacity:1;stroke-width:0.264583"
       id="path10"
       inkscape:flatsided="true"
       sodipodi:sides="6"
       sodipodi:cx="120.25065"
       sodipodi:cy="109.17995"
       sodipodi:r1="4.2127032"
       sodipodi:r2="3.6483083"
       sodipodi:arg1="0.52359878"
       sodipodi:arg2="1.0471976"
       inkscape:rounded="0"
       inkscape:randomized="0"
       d="m 123.89896,111.2863 -3.64831,2.10635 -3.64831,-2.10635 0,-4.2127 3.64831,-2.10636 3.64831,2.10636 z"
       transform="matrix(0.6482358,1.1227773,-1.1227773,0.6482358,194.55658,-75.631526)"
       inkscape:transform-center-y="-22.146357"
       inkscape:transform-center-x="-38.291122" /><path
       sodipodi:type="star"
       style="fill:#010937;fill-opacity:1;stroke-width:0.264583"
       id="path11"
       inkscape:flatsided="true"
       sodipodi:sides="6"
       sodipodi:cx="120.25065"
       sodipodi:cy="109.17995"
       sodipodi:r1="4.2127032"
       sodipodi:r2="3.6483083"
       sodipodi:arg1="0.52359878"
       sodipodi:arg2="1.0471976"
       inkscape:rounded="0"
       inkscape:randomized="0"
       d="m 123.89896,111.2863 -3.64831,2.10635 -3.64831,-2.10635 0,-4.2127 3.64831,-2.10636 3.64831,2.10636 z"
       transform="matrix(-0.64823576,1.1227773,-1.1227773,-0.64823576,350.49188,110.15143)"
       inkscape:transform-center-y="22.087902"
       inkscape:transform-center-x="-38.324876" /><path
       sodipodi:type="star"
       style="fill:#010937;fill-opacity:1;stroke-width:0.264583"
       id="path12"
       inkscape:flatsided="true"
       sodipodi:sides="6"
       sodipodi:cx="120.25065"
       sodipodi:cy="109.17995"
       sodipodi:r1="4.2127032"
       sodipodi:r2="3.6483083"
       sodipodi:arg1="0.52359878"
       sodipodi:arg2="1.0471976"
       inkscape:rounded="0"
       inkscape:randomized="0"
       d="m 123.89896,111.2863 -3.64831,2.10635 -3.64831,-2.10635 0,-4.2127 3.64831,-2.10636 3.64831,2.10636 z"
       transform="matrix(-1.2964715,1.4198488e-8,-1.4198488e-8,-1.2964715,268.20302,338.02838)"
       inkscape:transform-center-y="44.234272"
       inkscape:transform-center-x="-0.033762329" /><path
       sodipodi:type="star"
       style="fill:#010937;fill-opacity:1;stroke-width:0.264583"
       id="path13"
       inkscape:flatsided="true"
       sodipodi:sides="6"
       sodipodi:cx="120.25065"
       sodipodi:cy="109.17995"
       sodipodi:r1="4.2127032"
       sodipodi:r2="3.6483083"
       sodipodi:arg1="0.52359878"
       sodipodi:arg2="1.0471976"
       inkscape:rounded="0"
       inkscape:randomized="0"
       d="m 123.89896,111.2863 -3.64831,2.10635 -3.64831,-2.10635 0,-4.2127 3.64831,-2.10636 3.64831,2.10636 z"
       transform="matrix(-0.64823576,-1.1227772,1.1227772,-0.64823576,29.851603,380.18081)"
       inkscape:transform-center-y="22.146378"
       inkscape:transform-center-x="38.291127" /><path
       sodipodi:type="star"
       style="fill:#010937;fill-opacity:1;stroke-width:0.264583"
       id="path14"
       inkscape:flatsided="true"
       sodipodi:sides="6"
       sodipodi:cx="120.25065"
       sodipodi:cy="109.17995"
       sodipodi:r1="4.2127032"
       sodipodi:r2="3.6483083"
       sodipodi:arg1="0.52359878"
       sodipodi:arg2="1.0471976"
       inkscape:rounded="0"
       inkscape:randomized="0"
       d="m 123.89896,111.2863 -3.64831,2.10635 -3.64831,-2.10635 0,-4.2127 3.64831,-2.10636 3.64831,2.10636 z"
       transform="matrix(0.6482357,-1.1227772,1.1227772,0.6482357,-126.08369,194.39785)"
       inkscape:transform-center-y="-22.087897"
       inkscape:transform-center-x="38.324889" /><path
       style="font-weight:bold;font-size:19.7556px;font-family:Montserrat;-inkscape-font-specification:'Montserrat Bold';fill:#010937;stroke-width:0.264583"
       d="m 55.762579,225.48587 v -13.82892 h 5.985946 q 1.857027,0 3.200408,0.61242 1.34338,0.59267 2.074338,1.71874 0.730957,1.12607 0.730957,2.68676 0,1.54094 -0.730957,2.66701 -0.730958,1.12607 -2.074338,1.73849 -1.343381,0.59267 -3.200408,0.59267 h -4.207942 l 1.422403,-1.44216 v 5.25499 z m 3.200407,-4.89939 -1.422403,-1.52118 h 4.030142 q 1.48167,0 2.212627,-0.63218 0.730957,-0.63218 0.730957,-1.75825 0,-1.14582 -0.730957,-1.778 -0.730957,-0.63218 -2.212627,-0.63218 h -4.030142 l 1.422403,-1.52118 z m 17.977603,5.13646 q -1.639715,0 -3.042363,-0.5334 -1.382892,-0.5334 -2.410183,-1.50143 -1.007535,-0.96802 -1.580448,-2.27189 -0.553157,-1.30387 -0.553157,-2.84481 0,-1.54094 0.553157,-2.84481 0.572913,-1.30387 1.600204,-2.27189 1.027291,-0.96802 2.410183,-1.50143 1.382892,-0.5334 3.002851,-0.5334 1.639715,0 3.002851,0.5334 1.382892,0.53341 2.390428,1.50143 1.027291,0.96802 1.600204,2.27189 0.572912,1.28412 0.572912,2.84481 0,1.54094 -0.572912,2.86456 -0.572913,1.30387 -1.600204,2.2719 -1.007536,0.94827 -2.390428,1.48167 -1.363136,0.5334 -2.983095,0.5334 z m -0.01976,-2.72628 q 0.928513,0 1.698982,-0.31608 0.790224,-0.31609 1.382892,-0.90876 0.592668,-0.59267 0.908757,-1.40265 0.335846,-0.80998 0.335846,-1.79776 0,-0.98778 -0.335846,-1.79776 -0.316089,-0.80998 -0.908757,-1.40265 -0.572913,-0.59266 -1.363137,-0.90875 -0.790224,-0.31609 -1.718737,-0.31609 -0.928513,0 -1.718737,0.31609 -0.770468,0.31609 -1.363136,0.90875 -0.592668,0.59267 -0.928514,1.40265 -0.316089,0.80998 -0.316089,1.79776 0,0.96802 0.316089,1.79776 0.335846,0.80998 0.908758,1.40265 0.592668,0.59267 1.382892,0.90876 0.790224,0.31608 1.718737,0.31608 z m 9.976576,2.48921 v -13.82892 h 5.906924 q 2.884318,0 4.484522,1.34338 1.600203,1.32363 1.600203,3.67454 0,1.54094 -0.730957,2.66701 -0.730957,1.10631 -2.074338,1.69898 -1.343381,0.59267 -3.200407,0.59267 h -4.207943 l 1.422403,-1.40265 v 5.25499 z m 8.791242,0 -3.45723,-5.01792 h 3.417719 l 3.496741,5.01792 z m -5.590835,-4.89939 -1.422403,-1.50142 h 4.030142 q 1.48167,0 2.212628,-0.63218 0.730957,-0.65194 0.730957,-1.77801 0,-1.14582 -0.730957,-1.778 -0.730958,-0.63218 -2.212628,-0.63218 h -4.030142 l 1.422403,-1.52118 z m 13.986974,4.89939 v -11.22118 h -4.425255 v -2.60774 h 12.050915 v 2.60774 h -4.42525 v 11.22118 z m 18.82709,0 v -13.82892 h 3.2004 v 13.82892 z m -9.48269,0 v -13.82892 h 3.20041 v 13.82892 z m 2.96334,-5.66986 v -2.70651 h 6.75641 v 2.70651 z m 19.7161,5.90693 q -1.63972,0 -3.04237,-0.5334 -1.38289,-0.5334 -2.41018,-1.50143 -1.00754,-0.96802 -1.58045,-2.27189 -0.55316,-1.30387 -0.55316,-2.84481 0,-1.54094 0.55316,-2.84481 0.57291,-1.30387 1.60021,-2.27189 1.02729,-0.96802 2.41018,-1.50143 1.38289,-0.5334 3.00285,-0.5334 1.63971,0 3.00285,0.5334 1.38289,0.53341 2.39043,1.50143 1.02729,0.96802 1.6002,2.27189 0.57291,1.28412 0.57291,2.84481 0,1.54094 -0.57291,2.86456 -0.57291,1.30387 -1.6002,2.2719 -1.00754,0.94827 -2.39043,1.48167 -1.36314,0.5334 -2.98309,0.5334 z m -0.0198,-2.72628 q 0.92851,0 1.69898,-0.31608 0.79023,-0.31609 1.38289,-0.90876 0.59267,-0.59267 0.90876,-1.40265 0.33585,-0.80998 0.33585,-1.79776 0,-0.98778 -0.33585,-1.79776 -0.31609,-0.80998 -0.90876,-1.40265 -0.57291,-0.59266 -1.36313,-0.90875 -0.79023,-0.31609 -1.71874,-0.31609 -0.92851,0 -1.71874,0.31609 -0.77047,0.31609 -1.36313,0.90875 -0.59267,0.59267 -0.92852,1.40265 -0.31609,0.80998 -0.31609,1.79776 0,0.96802 0.31609,1.79776 0.33585,0.80998 0.90876,1.40265 0.59267,0.59267 1.38289,0.90876 0.79023,0.31608 1.71874,0.31608 z m 9.97658,2.48921 v -13.82892 h 3.20041 v 11.22118 h 6.93421 v 2.60774 z m 11.93238,0 v -13.82892 h 10.45071 v 2.56823 h -7.27006 v 8.69246 h 7.52689 v 2.56823 z m 2.94359,-5.76863 v -2.48921 h 6.65763 v 2.48921 z"
       id="text14"
       aria-label="PORTHOLE" /><path
       style="font-weight:500;font-size:7.76111px;font-family:Montserrat;-inkscape-font-specification:'Montserrat Medium';fill:#010937;stroke-width:0.264583"
       d="m 58.519346,236.98943 -1.816099,-5.43278 h 0.799394 l 1.668639,5.01368 h -0.403578 l 1.730727,-5.01368 h 0.714023 l 1.691921,5.01368 h -0.388055 l 1.691922,-5.01368 h 0.737305 l -1.816099,5.43278 h -0.814917 l -1.583266,-4.64891 h 0.20955 l -1.591028,4.64891 z m 8.956322,0.0621 q -0.620889,0 -1.18745,-0.18626 -0.566561,-0.19403 -0.892527,-0.49671 l 0.287161,-0.60537 q 0.310444,0.27164 0.791633,0.45014 0.481189,0.17851 1.001183,0.17851 0.473428,0 0.76835,-0.10866 0.294922,-0.10865 0.434622,-0.29492 0.1397,-0.19403 0.1397,-0.43462 0,-0.2794 -0.186267,-0.45014 -0.178505,-0.17075 -0.473427,-0.27164 -0.287161,-0.10866 -0.636411,-0.18627 -0.34925,-0.0776 -0.706261,-0.17851 -0.34925,-0.10865 -0.644172,-0.27163 -0.287161,-0.16299 -0.465667,-0.43463 -0.178506,-0.2794 -0.178506,-0.71402 0,-0.4191 0.217312,-0.76835 0.225072,-0.35701 0.682977,-0.56656 0.465667,-0.21731 1.179689,-0.21731 0.473428,0 0.939094,0.12418 0.465667,0.12418 0.807156,0.35701 l -0.256117,0.62089 q -0.34925,-0.23284 -0.737305,-0.33373 -0.388056,-0.10866 -0.752828,-0.10866 -0.457906,0 -0.752828,0.11642 -0.294922,0.11642 -0.434622,0.31045 -0.131939,0.19402 -0.131939,0.43462 0,0.28716 0.178506,0.4579 0.186266,0.17075 0.473427,0.27164 0.294923,0.1009 0.644173,0.18627 0.34925,0.0776 0.698499,0.1785 0.357011,0.1009 0.644173,0.26388 0.294922,0.16298 0.473427,0.43462 0.178506,0.27164 0.178506,0.6985 0,0.41134 -0.225072,0.76835 -0.225073,0.34925 -0.6985,0.56656 -0.465667,0.20955 -1.179689,0.20955 z m 3.236385,-0.0621 v -5.43278 h 0.776111 v 4.75756 h 2.941461 v 0.67522 z m 9.127058,0.0621 q -0.620889,0 -1.148644,-0.20178 -0.519995,-0.20955 -0.90805,-0.58209 -0.380295,-0.38029 -0.597606,-0.88476 -0.217311,-0.50448 -0.217311,-1.10984 0,-0.60537 0.217311,-1.10984 0.217311,-0.50447 0.605367,-0.87701 0.388055,-0.38029 0.90805,-0.58208 0.527755,-0.20955 1.148644,-0.20955 0.62865,0 1.156405,0.21731 0.535517,0.20955 0.90805,0.62865 l -0.504472,0.48895 q -0.310444,-0.32597 -0.6985,-0.48119 -0.388055,-0.16298 -0.830439,-0.16298 -0.457905,0 -0.853722,0.15522 -0.388055,0.15522 -0.675216,0.43462 -0.287161,0.2794 -0.450145,0.66746 -0.155222,0.38029 -0.155222,0.83044 0,0.45014 0.155222,0.8382 0.162984,0.38029 0.450145,0.65969 0.287161,0.2794 0.675216,0.43462 0.395817,0.15523 0.853722,0.15523 0.442384,0 0.830439,-0.15523 0.388056,-0.16298 0.6985,-0.49671 l 0.504472,0.48895 q -0.372533,0.4191 -0.90805,0.63641 -0.527755,0.21731 -1.164166,0.21731 z m 5.285311,0 q -0.620889,0 -1.156405,-0.20955 -0.527756,-0.20955 -0.915811,-0.58208 -0.388056,-0.38029 -0.605367,-0.88477 -0.217311,-0.50447 -0.217311,-1.10207 0,-0.59761 0.217311,-1.10208 0.217311,-0.50447 0.605367,-0.87701 0.388055,-0.38029 0.915811,-0.58984 0.527755,-0.20955 1.156405,-0.20955 0.620889,0 1.140883,0.20955 0.527755,0.20179 0.915811,0.58208 0.395817,0.37254 0.605367,0.87701 0.217311,0.50447 0.217311,1.10984 0,0.60536 -0.217311,1.10984 -0.20955,0.50447 -0.605367,0.88476 -0.388056,0.37254 -0.915811,0.58209 -0.519994,0.20178 -1.140883,0.20178 z m 0,-0.69073 q 0.450144,0 0.830439,-0.15523 0.388055,-0.15522 0.667455,-0.43462 0.287161,-0.28716 0.442383,-0.66745 0.162984,-0.3803 0.162984,-0.83044 0,-0.45015 -0.162984,-0.83044 -0.155222,-0.3803 -0.442383,-0.6597 -0.2794,-0.28716 -0.667455,-0.44238 -0.380295,-0.15522 -0.830439,-0.15522 -0.457906,0 -0.845961,0.15522 -0.380294,0.15522 -0.667456,0.44238 -0.287161,0.2794 -0.450144,0.6597 -0.155222,0.38029 -0.155222,0.83044 0,0.45014 0.155222,0.83044 0.162983,0.38029 0.450144,0.66745 0.287162,0.2794 0.667456,0.43462 0.388055,0.15523 0.845961,0.15523 z m 4.066824,0.62865 v -5.43278 h 0.636411 l 3.593394,4.46264 h -0.333728 v -4.46264 h 0.776111 v 5.43278 h -0.636411 l -3.593394,-4.46264 h 0.333728 v 4.46264 z m 7.380817,0 v -4.75756 h -1.862666 v -0.67522 h 4.493682 v 0.67522 h -1.862666 v 4.75756 z m 2.382662,0 2.460275,-5.43278 h 0.76835 l 2.46803,5.43278 h -0.81492 l -2.19639,-4.99816 h 0.31044 l -2.196391,4.99816 z m 1.047745,-1.3582 0.20955,-0.62089 h 3.05788 l 0.22507,0.62089 z m 5.45607,1.3582 v -5.43278 h 0.77611 v 5.43278 z m 2.40594,0 v -5.43278 h 0.63641 l 3.59339,4.46264 h -0.33373 v -4.46264 h 0.77612 v 5.43278 h -0.63642 l -3.59339,-4.46264 h 0.33373 v 4.46264 z m 6.30202,0 v -5.43278 h 3.83399 v 0.67522 h -3.05788 v 4.08234 h 3.16653 v 0.67522 z m 0.70626,-2.42923 v -0.6597 h 2.794 v 0.6597 z m 4.49369,2.42923 v -5.43278 h 2.11878 q 1.05551,0 1.66088,0.50447 0.60536,0.49671 0.60536,1.38924 0,0.58984 -0.27164,1.0167 -0.27164,0.4191 -0.77611,0.64418 -0.50447,0.22507 -1.21849,0.22507 h -1.69192 l 0.34925,-0.35701 v 2.01013 z m 3.63219,0 -1.38147,-1.97133 h 0.83044 l 1.397,1.97133 z m -2.85608,-1.93252 -0.34925,-0.3803 h 1.66864 q 0.74506,0 1.12536,-0.3182 0.38805,-0.32597 0.38805,-0.90805 0,-0.58208 -0.38805,-0.90029 -0.3803,-0.3182 -1.12536,-0.3182 h -1.66864 l 0.34925,-0.38806 z m 6.95394,1.93252 v -5.43278 h 0.63641 l 2.43699,4.10563 h -0.34149 l 2.40594,-4.10563 h 0.63641 l 0.008,5.43278 h -0.74507 l -0.008,-4.26085 h 0.1785 l -2.14206,3.60115 h -0.35701 l -2.15759,-3.60115 h 0.19402 v 4.26085 z m 6.58918,0 2.46027,-5.43278 h 0.76835 l 2.46803,5.43278 h -0.81491 l -2.1964,-4.99816 h 0.31045 l -2.1964,4.99816 z m 1.04775,-1.3582 0.20955,-0.62089 h 3.05788 l 0.22507,0.62089 z m 5.45606,1.3582 v -5.43278 h 0.63641 l 3.5934,4.46264 h -0.33373 v -4.46264 h 0.77611 v 5.43278 h -0.63641 l -3.59339,-4.46264 h 0.33372 v 4.46264 z m 5.47935,0 2.46027,-5.43278 h 0.76835 l 2.46803,5.43278 h -0.81491 l -2.1964,-4.99816 h 0.31045 l -2.1964,4.99816 z m 1.04775,-1.3582 0.20955,-0.62089 h 3.05788 l 0.22507,0.62089 z m 7.83095,1.42028 q -0.62865,0 -1.1564,-0.20178 -0.52776,-0.20955 -0.91581,-0.58209 -0.38806,-0.38029 -0.60537,-0.88476 -0.21731,-0.50448 -0.21731,-1.10984 0,-0.60537 0.21731,-1.10984 0.21731,-0.50447 0.60537,-0.87701 0.39581,-0.38029 0.92357,-0.58208 0.52776,-0.20955 1.16417,-0.20955 0.64417,0 1.17969,0.20955 0.53551,0.20955 0.90805,0.62865 l -0.48119,0.48119 q -0.33373,-0.32597 -0.72955,-0.47343 -0.38805,-0.15522 -0.84596,-0.15522 -0.46567,0 -0.86924,0.15522 -0.39582,0.15522 -0.69074,0.43462 -0.28716,0.2794 -0.45015,0.66746 -0.15522,0.38029 -0.15522,0.83044 0,0.44238 0.15522,0.83044 0.16299,0.38029 0.45015,0.66745 0.29492,0.2794 0.69074,0.43462 0.39581,0.15523 0.86148,0.15523 0.43462,0 0.83044,-0.13194 0.40358,-0.1397 0.74507,-0.45791 l 0.44238,0.58985 q -0.40358,0.34148 -0.94686,0.51999 -0.53551,0.17074 -1.10984,0.17074 z m 2.0567,-0.69073 -0.74507,-0.1009 v -2.01789 h 0.74507 z m 1.48237,0.62865 v -5.43278 h 3.83399 v 0.67522 h -3.05788 v 4.08234 h 3.16653 v 0.67522 z m 0.70626,-2.42923 v -0.6597 h 2.794 v 0.6597 z m 4.49368,2.42923 v -5.43278 h 2.11879 q 1.05551,0 1.66087,0.50447 0.60537,0.49671 0.60537,1.38924 0,0.58984 -0.27164,1.0167 -0.27164,0.4191 -0.77611,0.64418 -0.50447,0.22507 -1.21849,0.22507 h -1.69192 l 0.34925,-0.35701 v 2.01013 z m 3.6322,0 -1.38147,-1.97133 h 0.83043 l 1.397,1.97133 z m -2.85608,-1.93252 -0.34925,-0.3803 h 1.66863 q 0.74507,0 1.12536,-0.3182 0.38806,-0.32597 0.38806,-0.90805 0,-0.58208 -0.38806,-0.90029 -0.38029,-0.3182 -1.12536,-0.3182 h -1.66863 l 0.34925,-0.38806 z"
       id="text14-8"
       aria-label="WSL CONTAINER MANAGER" /></g></svg>
