<?xml version="1.0" encoding="UTF-8" standalone="no"?>
<!-- Created with Inkscape (http://www.inkscape.org/) -->

<svg
   width="112.94279mm"
   height="139.23405mm"
   viewBox="0 0 112.94279 139.23405"
   version="1.1"
   id="svg1"
   xml:space="preserve"
   inkscape:version="1.4.4 (dcaf3e7, 2026-05-05)"
   sodipodi:docname="portholelogowithname-dark.svg"
   xmlns:inkscape="http://www.inkscape.org/namespaces/inkscape"
   xmlns:sodipodi="http://sodipodi.sourceforge.net/DTD/sodipodi-0.dtd"
   xmlns="http://www.w3.org/2000/svg"
   xmlns:svg="http://www.w3.org/2000/svg"><sodipodi:namedview
     id="namedview1"
     pagecolor="#505050"
     bordercolor="#eeeeee"
     borderopacity="1"
     inkscape:showpageshadow="0"
     inkscape:pageopacity="0"
     inkscape:pagecheckerboard="0"
     inkscape:deskcolor="#505050"
     inkscape:document-units="mm"
     inkscape:zoom="1.0396254"
     inkscape:cx="234.69992"
     inkscape:cy="315.01731"
     inkscape:window-width="2560"
     inkscape:window-height="1369"
     inkscape:window-x="-8"
     inkscape:window-y="305"
     inkscape:window-maximized="1"
     inkscape:current-layer="layer1" /><defs
     id="defs1" /><g
     inkscape:label="Layer 1"
     inkscape:groupmode="layer"
     id="layer1"
     transform="translate(-55.762582,-97.817452)"><path
       id="path1"
       style="fill:#010937;fill-opacity:1;stroke:#ffffff;stroke-width:3;stroke-dasharray:none;stroke-opacity:1"
       d="M 112.23398,99.317452 A 53,53 0 0 0 59.234111,152.31732 53,53 0 0 0 112.23398,205.3177 53,53 0 0 0 165.23384,152.31732 53,53 0 0 0 112.23398,99.317452 Z m 0,17.999938 a 35,35 0 0 1 34.99993,34.99993 35,35 0 0 1 -34.99993,34.99993 35,35 0 0 1 -34.999935,-34.99993 35,35 0 0 1 34.999935,-34.99993 z" /><path
       sodipodi:type="star"
       style="fill:#ffffff;fill-opacity:1;stroke-width:0.264583"
       id="path6"
       inkscape:flatsided="true"
       sodipodi:sides="6"
       sodipodi:cx="120.25065"
       sodipodi:cy="109.17995"
       sodipodi:r1="4.2127032"
       sodipodi:r2="3.6483083"
       sodipodi:arg1="0.52359878"
       sodipodi:arg2="1.0471976"
       inkscape:rounded="0"
       inkscape:randomized="0"
       d="m 123.89896,111.2863 -3.64831,2.10635 -3.64831,-2.10635 0,-4.2127 3.64831,-2.10636 3.64831,2.10636 z"
       transform="matrix(1.2964716,0,0,1.2964716,-43.667575,-33.53754)"
       inkscape:transform-center-y="-44.23426"
       inkscape:transform-center-x="0.033742082" /><path
       id="circle6"
       style="fill:#00a4ef;fill-opacity:1;stroke:#ffffff;stroke-width:3;stroke-dasharray:none;stroke-opacity:1"
       d="M 112.23398,152.31732 H 77.234045 a 35,35 0 0 0 34.999935,34.99993 z" /><path
       id="path9"
       style="fill:#ffb900;fill-opacity:1;stroke:#ffffff;stroke-width:3;stroke-dasharray:none;stroke-opacity:1"
       d="m 112.23398,152.31732 v 34.99993 a 35,35 0 0 0 34.99993,-34.99993 z" /><path
       id="path8"
       style="fill:#f25022;fill-opacity:1;stroke:#ffffff;stroke-width:3;stroke-dasharray:none;stroke-opacity:1"
       d="M 112.23398,117.31739 A 35,35 0 0 0 77.234045,152.31732 H 112.23398 Z" /><path
       id="path7"
       style="fill:#7fba00;fill-opacity:1;stroke:#ffffff;stroke-width:3;stroke-dasharray:none;stroke-opacity:1"
       d="m 112.23398,117.31739 v 34.99993 h 34.99993 a 35,35 0 0 0 -34.99993,-34.99993 z" /><path
       sodipodi:type="star"
       style="fill:#ffffff;fill-opacity:1;stroke-width:0.264583"
       id="path10"
       inkscape:flatsided="true"
       sodipodi:sides="6"
       sodipodi:cx="120.25065"
       sodipodi:cy="109.17995"
       sodipodi:r1="4.2127032"
       sodipodi:r2="3.6483083"
       sodipodi:arg1="0.52359878"
       sodipodi:arg2="1.0471976"
       inkscape:rounded="0"
       inkscape:randomized="0"
       d="m 123.89896,111.2863 -3.64831,2.10635 -3.64831,-2.10635 0,-4.2127 3.64831,-2.10636 3.64831,2.10636 z"
       transform="matrix(0.6482358,1.1227773,-1.1227773,0.6482358,194.55658,-75.631526)"
       inkscape:transform-center-y="-22.146357"
       inkscape:transform-center-x="-38.291122" /><path
       sodipodi:type="star"
       style="fill:#ffffff;fill-opacity:1;stroke-width:0.264583"
       id="path11"
       inkscape:flatsided="true"
       sodipodi:sides="6"
       sodipodi:cx="120.25065"
       sodipodi:cy="109.17995"
       sodipodi:r1="4.2127032"
       sodipodi:r2="3.6483083"
       sodipodi:arg1="0.52359878"
       sodipodi:arg2="1.0471976"
       inkscape:rounded="0"
       inkscape:randomized="0"
       d="m 123.89896,111.2863 -3.64831,2.10635 -3.64831,-2.10635 0,-4.2127 3.64831,-2.10636 3.64831,2.10636 z"
       transform="matrix(-0.64823576,1.1227773,-1.1227773,-0.64823576,350.49188,110.15143)"
       inkscape:transform-center-y="22.087902"
       inkscape:transform-center-x="-38.324876" /><path
       sodipodi:type="star"
       style="fill:#ffffff;fill-opacity:1;stroke-width:0.264583"
       id="path12"
       inkscape:flatsided="true"
       sodipodi:sides="6"
       sodipodi:cx="120.25065"
       sodipodi:cy="109.17995"
       sodipodi:r1="4.2127032"
       sodipodi:r2="3.6483083"
       sodipodi:arg1="0.52359878"
       sodipodi:arg2="1.0471976"
       inkscape:rounded="0"
       inkscape:randomized="0"
       d="m 123.89896,111.2863 -3.64831,2.10635 -3.64831,-2.10635 0,-4.2127 3.64831,-2.10636 3.64831,2.10636 z"
       transform="matrix(-1.2964715,1.4198488e-8,-1.4198488e-8,-1.2964715,268.20302,338.02838)"
       inkscape:transform-center-y="44.234272"
       inkscape:transform-center-x="-0.033762329" /><path
       sodipodi:type="star"
       style="fill:#ffffff;fill-opacity:1;stroke-width:0.264583"
       id="path13"
       inkscape:flatsided="true"
       sodipodi:sides="6"
       sodipodi:cx="120.25065"
       sodipodi:cy="109.17995"
       sodipodi:r1="4.2127032"
       sodipodi:r2="3.6483083"
       sodipodi:arg1="0.52359878"
       sodipodi:arg2="1.0471976"
       inkscape:rounded="0"
       inkscape:randomized="0"
       d="m 123.89896,111.2863 -3.64831,2.10635 -3.64831,-2.10635 0,-4.2127 3.64831,-2.10636 3.64831,2.10636 z"
       transform="matrix(-0.64823576,-1.1227772,1.1227772,-0.64823576,29.851603,380.18081)"
       inkscape:transform-center-y="22.146378"
       inkscape:transform-center-x="38.291127" /><path
       sodipodi:type="star"
       style="fill:#ffffff;fill-opacity:1;stroke-width:0.264583"
       id="path14"
       inkscape:flatsided="true"
       sodipodi:sides="6"
       sodipodi:cx="120.25065"
       sodipodi:cy="109.17995"
       sodipodi:r1="4.2127032"
       sodipodi:r2="3.6483083"
       sodipodi:arg1="0.52359878"
       sodipodi:arg2="1.0471976"
       inkscape:rounded="0"
       inkscape:randomized="0"
       d="m 123.89896,111.2863 -3.64831,2.10635 -3.64831,-2.10635 0,-4.2127 3.64831,-2.10636 3.64831,2.10636 z"
       transform="matrix(0.6482357,-1.1227772,1.1227772,0.6482357,-126.08369,194.39785)"
       inkscape:transform-center-y="-22.087897"
       inkscape:transform-center-x="38.324889" /><text
       xml:space="preserve"
       style="font-size:19.7556px;writing-mode:lr-tb;direction:ltr;fill:#ffffff;fill-opacity:1;stroke:none;stroke-width:0.264583;stroke-opacity:1"
       x="54.122864"
       y="225.48587"
       id="text14"><tspan
         sodipodi:role="line"
         id="tspan14"
         style="font-style:normal;font-variant:normal;font-weight:bold;font-stretch:normal;font-size:19.7556px;font-family:Montserrat;-inkscape-font-specification:'Montserrat Bold';fill:#ffffff;fill-opacity:1;stroke:none;stroke-width:0.264583"
         x="54.122864"
         y="225.48587">PORTHOLE</tspan></text><text
       xml:space="preserve"
       style="font-size:7.76111px;writing-mode:lr-tb;direction:ltr;fill:#ffffff;fill-opacity:1;stroke:none;stroke-width:0.264583;stroke-opacity:1"
       x="56.454891"
       y="236.98943"
       id="text14-8"><tspan
         sodipodi:role="line"
         id="tspan14-2"
         style="font-style:normal;font-variant:normal;font-weight:500;font-stretch:normal;font-size:7.76111px;font-family:Montserrat;-inkscape-font-specification:'Montserrat Medium';fill:#ffffff;fill-opacity:1;stroke:none;stroke-width:0.264583"
         x="56.454891"
         y="236.98943">WSL CONTAINER MANAGER</tspan></text></g></svg>
